<?xml version="1.0" standalone="no"?>
<!DOCTYPE svg PUBLIC "-//W3C//DTD SVG 20010904//EN"
 "http://www.w3.org/TR/2001/REC-SVG-20010904/DTD/svg10.dtd">
<svg version="1.0" xmlns="http://www.w3.org/2000/svg"
 width="500.000000pt" height="500.000000pt" viewBox="0 0 500.000000 500.000000"
 preserveAspectRatio="xMidYMid meet">
<metadata>
Created by potrace 1.11, written by Peter Selinger 2001-2013
</metadata>
<g transform="translate(0.000000,500.000000) scale(0.100000,-0.100000)"
fill="#000000" stroke="none">
<path d="M0 2500 l0 -2500 2500 0 2500 0 0 2500 0 2500 -2500 0 -2500 0 0
-2500z m3594 695 l397 -636 -84 -157 c-46 -86 -189 -355 -317 -597 -129 -242
-250 -469 -270 -505 l-36 -65 -69 -3 c-790 -32 -1421 -49 -1432 -39 -6 7 -68
104 -137 217 l-125 204 44 81 c23 44 231 433 461 865 230 432 474 891 543
1020 l126 235 130 5 c72 3 185 7 251 8 l121 2 397 -635z m-1404 599 c0 -6 -39
-80 -150 -289 -61 -113 -535 -1006 -628 -1180 -124 -235 -154 -287 -160 -280
-3 3 -63 96 -133 208 l-128 202 53 100 c165 312 649 1220 651 1223 2 2 92 7
202 11 291 12 293 12 293 5z m2311 -969 c175 -62 225 -282 93 -411 -101 -97
-247 -97 -347 0 -101 98 -101 254 0 352 70 69 164 90 254 59z m-3846 -162 c92
-31 165 -134 165 -233 0 -60 -30 -130 -75 -175 -98 -98 -252 -98 -350 0 -98
98 -98 252 0 350 69 70 164 91 260 58z"/>
</g>
</svg>
